<?xml version="1.0" encoding="utf-8"?>
<!-- Generator: Adobe Illustrator 24.3.0, SVG Export Plug-In . SVG Version: 6.00 Build 0)  -->
<svg version="1.1" id="Calque_1" xmlns="http://www.w3.org/2000/svg" xmlns:xlink="http://www.w3.org/1999/xlink" x="0px" y="0px"
	 viewBox="0 0 264 280" style="enable-background:new 0 0 264 280;" xml:space="preserve">
<style type="text/css">
	.st0{fill-rule:evenodd;clip-rule:evenodd;fill:#E6E6E6;}
	.st1{filter:url(#Adobe_OpacityMaskFilter);}
	.st2{fill-rule:evenodd;clip-rule:evenodd;fill:#FFFFFF;}
	.st3{mask:url(#mask-2_1_);}
	.st4{fill-rule:evenodd;clip-rule:evenodd;fill:#65C9FF;}
	.st5{filter:url(#Adobe_OpacityMaskFilter_1_);}
	.st6{mask:url(#mask-4_1_);}
	.st7{fill-rule:evenodd;clip-rule:evenodd;fill:#A5A5A5;}
	.st8{filter:url(#Adobe_OpacityMaskFilter_2_);}
	.st9{mask:url(#mask-6_1_);}
	.st10{filter:url(#Adobe_OpacityMaskFilter_3_);}
	.st11{mask:url(#mask-6_2_);fill-rule:evenodd;clip-rule:evenodd;fill:#A5A5A5;fill-opacity:0.1;}
</style>
<desc>Created with getavataaars.com</desc>
<g transform="translate(825.000000, 1100.000000)">
	<g id="Circle" transform="translate(12.000000, 40.000000)">
		<g id="Circle-Background">
			<circle id="path-1_1_" class="st0" cx="-705" cy="-980" r="120"/>
		</g>
		<defs>
			<filter id="Adobe_OpacityMaskFilter" filterUnits="userSpaceOnUse" x="-825" y="-1100" width="240" height="240">
				<feColorMatrix  type="matrix" values="1 0 0 0 0  0 1 0 0 0  0 0 1 0 0  0 0 0 1 0"/>
			</filter>
		</defs>
		<mask maskUnits="userSpaceOnUse" x="-825" y="-1100" width="240" height="240" id="mask-2_1_">
			<g class="st1">
				<circle id="path-1_2_" class="st2" cx="-705" cy="-980" r="120"/>
			</g>
		</mask>
		<g id="Color_x2F_Palette_x2F_Blue-01" class="st3">
			<rect id="_xD83D__xDD8D_Color" x="-825" y="-1100" class="st4" width="240" height="240"/>
		</g>
	</g>
	<g id="Mask">
	</g>
	<defs>
		<filter id="Adobe_OpacityMaskFilter_1_" filterUnits="userSpaceOnUse" x="-825" y="-1064" width="264" height="244">
			<feColorMatrix  type="matrix" values="1 0 0 0 0  0 1 0 0 0  0 0 1 0 0  0 0 0 1 0"/>
		</filter>
	</defs>
	<mask maskUnits="userSpaceOnUse" x="-825" y="-1064" width="264" height="244" id="mask-4_1_">
		<g class="st5">
			<path id="path-3_1_" class="st2" d="M-813-940c0,66.3,53.7,120,120,120s120-53.7,120-120h12v-160h-264v160H-813z"/>
		</g>
	</mask>
	<g id="Avataaar" class="st6">
		<g id="Body" transform="translate(32.000000, 36.000000)">
			<g>
				<path id="path-5_1_" class="st7" d="M-701-955.4v18.4h4l0,0c39.8,0,72,32.2,72,72v9h-200v-9c0-39.8,32.2-72,72-72l0,0h4v-18.4
					c-17.2-8.2-29.6-24.9-31.7-44.7c-5.8-0.8-10.3-5.8-10.3-11.9v-14c0-5.9,4.3-10.9,10-11.8v-6.2l0,0c0-30.9,25.1-56,56-56l0,0l0,0
					c30.9,0,56,25.1,56,56v6.2c5.7,1,10,5.9,10,11.8v14c0,6.1-4.5,11.1-10.3,11.9C-671.4-980.3-683.8-963.6-701-955.4z"/>
			</g>
			<defs>
				<filter id="Adobe_OpacityMaskFilter_2_" filterUnits="userSpaceOnUse" x="-857" y="-1100" width="264" height="244">
					<feColorMatrix  type="matrix" values="1 0 0 0 0  0 1 0 0 0  0 0 1 0 0  0 0 0 1 0"/>
				</filter>
			</defs>
			<mask maskUnits="userSpaceOnUse" x="-857" y="-1100" width="264" height="244" id="mask-6_1_">
				<g class="st8">
					<path id="path-5_2_" class="st2" d="M-701-955.4v18.4h4l0,0c39.8,0,72,32.2,72,72v9h-200v-9c0-39.8,32.2-72,72-72l0,0h4v-18.4
						c-17.2-8.2-29.6-24.9-31.7-44.7c-5.8-0.8-10.3-5.8-10.3-11.9v-14c0-5.9,4.3-10.9,10-11.8v-6.2l0,0c0-30.9,25.1-56,56-56l0,0
						l0,0c30.9,0,56,25.1,56,56v6.2c5.7,1,10,5.9,10,11.8v14c0,6.1-4.5,11.1-10.3,11.9C-671.4-980.3-683.8-963.6-701-955.4z"/>
				</g>
			</mask>
			<g id="Skin_x2F__xD83D__xDC76__xD83C__xDFFD_-03-Brown" class="st9">
				<g id="Color" transform="translate(-32.000000, 0.000000)">
					<rect x="-825" y="-1100" class="st7" width="264" height="244"/>
				</g>
			</g>
			<defs>
				<filter id="Adobe_OpacityMaskFilter_3_" filterUnits="userSpaceOnUse" x="-781" y="-1021" width="112" height="79">
					<feColorMatrix  type="matrix" values="1 0 0 0 0  0 1 0 0 0  0 0 1 0 0  0 0 0 1 0"/>
				</filter>
			</defs>
			<mask maskUnits="userSpaceOnUse" x="-781" y="-1021" width="112" height="79" id="mask-6_2_">
				<g class="st10">
					<path id="path-5_3_" class="st2" d="M-701-955.4v18.4h4l0,0c39.8,0,72,32.2,72,72v9h-200v-9c0-39.8,32.2-72,72-72l0,0h4v-18.4
						c-17.2-8.2-29.6-24.9-31.7-44.7c-5.8-0.8-10.3-5.8-10.3-11.9v-14c0-5.9,4.3-10.9,10-11.8v-6.2l0,0c0-30.9,25.1-56,56-56l0,0
						l0,0c30.9,0,56,25.1,56,56v6.2c5.7,1,10,5.9,10,11.8v14c0,6.1-4.5,11.1-10.3,11.9C-671.4-980.3-683.8-963.6-701-955.4z"/>
				</g>
			</mask>
			<path id="Neck-Shadow" class="st11" d="M-669-1021v23c0,30.9-25.1,56-56,56s-56-25.1-56-56v-23v15c0,30.9,25.1,56,56,56
				s56-25.1,56-56V-1021z"/>
		</g>
	</g>
</g>
</svg>
