<?xml version="1.0" encoding="utf-8"?>
<!-- Generator: Adobe Illustrator 24.3.0, SVG Export Plug-In . SVG Version: 6.00 Build 0)  -->
<svg version="1.1" id="Calque_1" xmlns="http://www.w3.org/2000/svg" xmlns:xlink="http://www.w3.org/1999/xlink" x="0px" y="0px"
	 viewBox="0 0 144 144" style="enable-background:new 0 0 144 144;" xml:space="preserve">
<style type="text/css">
	.st0{fill:#0045FF;}
	.st1{enable-background:new    ;}
	.st2{fill:#FFFFFF;}
</style>
<circle id="Ellipse_131" class="st0" cx="72.23" cy="72.27" r="72"/>
<g class="st1">
	<path class="st2" d="M51.83,37.47h21.1c2.93,0,5.77,0.3,8.5,0.9c2.73,0.6,5.17,1.6,7.3,3c2.13,1.4,3.83,3.23,5.1,5.5
		c1.27,2.27,1.9,5.07,1.9,8.4c0,3.87-1.08,7.18-3.25,9.95c-2.17,2.77-5.25,4.62-9.25,5.55v0.2c5,0.4,8.92,2.15,11.75,5.25
		c2.83,3.1,4.25,7.25,4.25,12.45c0,1.13-0.28,2.8-0.85,5c-0.57,2.2-1.75,4.38-3.55,6.55c-1.8,2.17-4.4,4.05-7.8,5.65
		c-3.4,1.6-7.93,2.4-13.6,2.4h-21.6V37.47z M59.03,68.47h14.5c1.73,0,3.45-0.22,5.15-0.65c1.7-0.43,3.23-1.15,4.6-2.15
		c1.37-1,2.48-2.28,3.35-3.85c0.87-1.57,1.3-3.48,1.3-5.75c0-0.73-0.15-1.77-0.45-3.1c-0.3-1.33-0.97-2.67-2-4
		c-1.03-1.33-2.55-2.48-4.55-3.45c-2-0.97-4.7-1.45-8.1-1.45h-13.8V68.47z M59.03,101.67h13.8c2.6,0,5.03-0.27,7.3-0.8
		c2.27-0.53,4.23-1.35,5.9-2.45c1.67-1.1,2.98-2.48,3.95-4.15c0.97-1.67,1.45-3.67,1.45-6c0-4.67-1.5-8.13-4.5-10.4
		c-3-2.27-7.4-3.4-13.2-3.4h-14.7V101.67z"/>
</g>
</svg>
